<svg width="18" height="19" viewBox="0 0 18 19" fill="none" xmlns="http://www.w3.org/2000/svg">
<path d="M10.811 6.05795C10.0971 6.05795 9.45815 6.40504 9.05978 6.93751C8.66142 6.40504 8.02246 6.05795 7.30855 6.05795C6.09768 6.05795 5.11557 7.04401 5.11557 8.26277C5.11557 8.73213 5.19051 9.16599 5.32067 9.5683C5.94385 11.5404 7.86469 12.7197 8.81524 13.0432C8.94935 13.0905 9.17022 13.0905 9.30432 13.0432C10.2549 12.7197 12.1757 11.5404 12.7989 9.5683C12.9291 9.16599 13.004 8.73213 13.004 8.26277C13.004 7.04401 12.0219 6.05795 10.811 6.05795Z" fill="#3D5278"/>
<rect opacity="0.8" x="0.579687" y="1.08826" width="16.9601" height="16.9601" rx="8.48006" stroke="#C3D4E9" stroke-opacity="0.4" stroke-width="0.394421"/>
</svg>
