<svg width="18" height="19" viewBox="0 0 18 19" fill="none" xmlns="http://www.w3.org/2000/svg">
<path d="M12.1979 10.5505L11.8034 9.89573C11.7206 9.74979 11.6457 9.4737 11.6457 9.31198V8.3141C11.6457 7.38721 11.1014 6.58653 10.3165 6.21183C10.1114 5.84897 9.73272 5.62415 9.29886 5.62415C8.86894 5.62415 8.48241 5.85685 8.27731 6.22367C7.50819 6.60625 6.97572 7.39904 6.97572 8.3141V9.31198C6.97572 9.4737 6.90078 9.74979 6.81795 9.89178L6.41959 10.5505C6.26182 10.8147 6.22632 11.1066 6.32492 11.3748C6.41959 11.6391 6.64441 11.8442 6.93628 11.9428C7.70145 12.2031 8.50607 12.3293 9.31069 12.3293C10.1153 12.3293 10.9199 12.2031 11.6851 11.9467C11.9612 11.856 12.1742 11.647 12.2767 11.3748C12.3793 11.1027 12.3517 10.8029 12.1979 10.5505Z" fill="#3D5278"/>
<path d="M10.419 12.7277C10.2534 13.1852 9.81555 13.5126 9.3028 13.5126C8.99121 13.5126 8.68356 13.3864 8.46663 13.1615C8.34042 13.0432 8.24576 12.8854 8.19054 12.7237C8.24181 12.7316 8.29309 12.7356 8.3483 12.7434C8.43902 12.7553 8.53368 12.7671 8.62834 12.775C8.85316 12.7947 9.08193 12.8066 9.31069 12.8066C9.53551 12.8066 9.76033 12.7947 9.98121 12.775C10.064 12.7671 10.1469 12.7632 10.2258 12.7513C10.2889 12.7434 10.352 12.7356 10.419 12.7277Z" fill="#3D5278"/>
<rect opacity="0.8" x="0.822668" y="1.08823" width="16.9601" height="16.9601" rx="8.48006" stroke="#C3D4E9" stroke-opacity="0.4" stroke-width="0.394421"/>
<circle cx="15.0219" cy="3.84922" r="2.16932" fill="#FF4423"/>
</svg>
