<svg width="19" height="19" viewBox="0 0 19 19" fill="none" xmlns="http://www.w3.org/2000/svg">
<path d="M12.7406 8.47181C12.0267 8.47181 11.7348 7.96695 12.0898 7.34771C12.2949 6.98879 12.1726 6.53126 11.8137 6.32616L11.1313 5.93568C10.8197 5.7503 10.4174 5.86074 10.2321 6.17233L10.1887 6.24727C9.8337 6.86652 9.24995 6.86652 8.89103 6.24727L8.84764 6.17233C8.67015 5.86074 8.26784 5.7503 7.95625 5.93568L7.2739 6.32616C6.91498 6.53126 6.79271 6.99273 6.99781 7.35165C7.35673 7.96695 7.06486 8.47181 6.35096 8.47181C5.94076 8.47181 5.60155 8.80707 5.60155 9.22121V9.91539C5.60155 10.3256 5.93681 10.6648 6.35096 10.6648C7.06486 10.6648 7.35673 11.1697 6.99781 11.7889C6.79271 12.1478 6.91498 12.6053 7.2739 12.8104L7.95625 13.2009C8.26784 13.3863 8.67015 13.2759 8.85553 12.9643L8.89892 12.8893C9.2539 12.2701 9.83764 12.2701 10.1966 12.8893L10.2399 12.9643C10.4253 13.2759 10.8276 13.3863 11.1392 13.2009L11.8216 12.8104C12.1805 12.6053 12.3028 12.1439 12.0977 11.7889C11.7388 11.1697 12.0306 10.6648 12.7445 10.6648C13.1547 10.6648 13.4939 10.3295 13.4939 9.91539V9.22121C13.49 8.81101 13.1547 8.47181 12.7406 8.47181ZM9.54577 10.8502C8.83975 10.8502 8.2639 10.2743 8.2639 9.5683C8.2639 8.86229 8.83975 8.28643 9.54577 8.28643C10.2518 8.28643 10.8276 8.86229 10.8276 9.5683C10.8276 10.2743 10.2518 10.8502 9.54577 10.8502Z" fill="#3D5278"/>
<rect opacity="0.8" x="1.06565" y="1.0882" width="16.9601" height="16.9601" rx="8.48006" stroke="#C3D4E9" stroke-opacity="0.4" stroke-width="0.394421"/>
</svg>
